<svg id="Group_8" data-name="Group 8" xmlns="http://www.w3.org/2000/svg" xmlns:xlink="http://www.w3.org/1999/xlink" width="58.822" height="58.757" viewBox="0 0 58.822 58.757">
  <defs>
    <clipPath id="clip-path">
      <rect id="Rectangle_10" data-name="Rectangle 10" width="58.822" height="58.757" fill="#ff0012"/>
    </clipPath>
  </defs>
  <circle id="Ellipse_4" data-name="Ellipse 4" cx="22.656" cy="22.656" r="22.656" transform="translate(7.349 7.25)" fill="#fff"/>
  <path id="Ellipse_4_-_Outline" data-name="Ellipse 4 - Outline" d="M22.656,1a21.662,21.662,0,0,0-8.429,41.611A21.662,21.662,0,0,0,31.086,2.7,21.52,21.52,0,0,0,22.656,1m0-1A22.656,22.656,0,1,1,0,22.656,22.656,22.656,0,0,1,22.656,0Z" transform="translate(7.349 7.25)" fill="#707070"/>
  <g id="Group_7" data-name="Group 7" transform="translate(0 0)">
    <g id="Group_6" data-name="Group 6" clip-path="url(#clip-path)">
      <path id="Path_27" data-name="Path 27" d="M29.385,58.758A29.38,29.38,0,1,1,58.822,29.536,29.352,29.352,0,0,1,29.385,58.758M29.352,47a62.613,62.613,0,0,0,8.9-.318,8.662,8.662,0,0,0,7.424-6.008,16.609,16.609,0,0,0,.682-5.326,113.542,113.542,0,0,0-.208-13.868,8.891,8.891,0,0,0-8.515-8.23,125.412,125.412,0,0,0-16.609.013A8.89,8.89,0,0,0,12.7,21.41a108.319,108.319,0,0,0,0,17.115,8.876,8.876,0,0,0,8,8.178A76.852,76.852,0,0,0,29.352,47" transform="translate(0 -0.003)" fill="#f30e0e"/>
      <path id="Path_28" data-name="Path 28" d="M30.307,16.381c-.026,2.429-.019,4.858-.149,7.288C29.937,27.7,27.624,30.022,23.6,30.2q-7.239.312-14.478,0C5.1,30.022,2.7,27.716,2.533,23.7q-.3-7.278,0-14.563C2.7,5.1,5.1,2.709,9.171,2.585c4.742-.149,9.49-.143,14.231-.006,4.241.123,6.554,2.481,6.762,6.7.123,2.371.117,4.735.143,7.106m-5.248.019a8.7,8.7,0,1,0-8.639,8.723A8.7,8.7,0,0,0,25.059,16.4M23.415,7.366a2,2,0,1,0,3.995-.045A2,2,0,0,0,25.4,5.313a2.03,2.03,0,0,0-1.981,2.053" transform="translate(13.088 13.599)" fill="#f30e0e"/>
      <path id="Path_29" data-name="Path 29" d="M9.331,3.75a5.65,5.65,0,0,1,5.683,5.631A5.677,5.677,0,1,1,3.66,9.375,5.592,5.592,0,0,1,9.331,3.75" transform="translate(20.113 20.606)" fill="#f30e0e"/>
    </g>
  </g>
</svg>
