<svg xmlns="http://www.w3.org/2000/svg" xmlns:xlink="http://www.w3.org/1999/xlink" width="35.984" height="36" viewBox="0 0 35.984 36">
  <defs>
    <clipPath id="clip-path">
      <rect id="Rectangle_2" data-name="Rectangle 2" width="35.984" height="36" fill="#1c1c1c"/>
    </clipPath>
  </defs>
  <g id="Group_27" data-name="Group 27" transform="translate(-43)">
    <g id="Group_1" data-name="Group 1" transform="translate(43)" clip-path="url(#clip-path)">
      <path id="Path_1" data-name="Path 1" d="M0,17.952C-.018,6.18,9.78-.02,18.136,0A17.733,17.733,0,0,1,35.984,18.037c-.072,7.753-5.39,18.054-18,17.962C9.341,35.936-.06,29.45,0,17.952m4.667.624c-.974,0-1.948.025-2.921-.011-.468-.018-.589.15-.529.576.065.462.08.931.149,1.392a16.629,16.629,0,0,0,3.449,7.927c.162.206.271.26.477.049a16.786,16.786,0,0,1,3.484-2.722.4.4,0,0,0,.213-.505,29.041,29.041,0,0,1-.829-6.27c-.009-.339-.117-.451-.461-.444-1.011.021-2.022.008-3.033.007m-.027-1.154c1.011,0,2.023-.016,3.033.008.37.009.48-.116.49-.474a28.807,28.807,0,0,1,.822-6.215.423.423,0,0,0-.233-.546,15.817,15.817,0,0,1-3.4-2.648c-.271-.279-.389-.209-.591.055A18.172,18.172,0,0,0,3.2,9.995a16.555,16.555,0,0,0-1.984,6.891c-.025.409.063.562.506.547.973-.034,1.947-.011,2.921-.011m26.7,0c.956,0,1.913-.025,2.868.011.463.017.616-.1.582-.584a16.763,16.763,0,0,0-3.581-9.286c-.218-.281-.334-.237-.554-.014A16.525,16.525,0,0,1,27.3,10.17a.456.456,0,0,0-.271.582,28.187,28.187,0,0,1,.817,6.167c.011.444.179.52.571.511.974-.025,1.95-.008,2.925-.008m-.017,1.154c-1.012,0-2.025.011-3.037-.006-.317-.005-.422.1-.432.413a29.651,29.651,0,0,1-.828,6.28.4.4,0,0,0,.191.515A16.62,16.62,0,0,1,30.712,28.5c.2.2.309.181.478-.036a16.674,16.674,0,0,0,3.607-9.39c.025-.394-.087-.519-.487-.509-.993.026-1.987.009-2.981.009M17.428,6.43c0-1.591-.011-3.182.007-4.774,0-.409-.126-.473-.5-.375a6.773,6.773,0,0,0-3.471,2.352,16.918,16.918,0,0,0-2.969,5.8c-.106.328.046.439.286.55a17.354,17.354,0,0,0,6.149,1.594c.4.028.507-.092.5-.487-.021-1.553-.009-3.107-.009-4.661M18.582,29.6c0,1.572.011,3.145-.007,4.717-.005.436.129.5.527.388a6.049,6.049,0,0,0,2.525-1.4,15.127,15.127,0,0,0,3.908-6.829c.092-.285-.106-.366-.29-.452a17.194,17.194,0,0,0-6.2-1.605c-.383-.025-.472.1-.468.465.017,1.572.007,3.145.007,4.717m0-23.2c0,1.572.005,3.145,0,4.717,0,.305.024.486.415.46A17.181,17.181,0,0,0,25.3,9.943a.339.339,0,0,0,.216-.482,17.541,17.541,0,0,0-2.607-5.369,7.087,7.087,0,0,0-3.813-2.8c-.409-.109-.525-.026-.521.4.018,1.572.007,3.145.007,4.717M17.428,29.578c0-1.572-.008-3.145.006-4.717,0-.33-.065-.467-.433-.443a17.253,17.253,0,0,0-6.256,1.617c-.234.11-.341.231-.249.517a17.683,17.683,0,0,0,2.549,5.274,7.18,7.18,0,0,0,3.777,2.853c.47.134.624.086.615-.44-.028-1.553-.01-3.107-.01-4.661M13.356,17.422c1.217,0,2.435-.008,3.652.006.308,0,.43-.08.426-.409q-.023-1.938,0-3.877c0-.325-.124-.415-.425-.426A17.351,17.351,0,0,1,10.464,11.1c-.28-.127-.379-.109-.449.213a31.316,31.316,0,0,0-.7,5.671c-.012.353.108.446.446.442,1.2-.017,2.4-.007,3.6-.007m9.241,0c1.18,0,2.36-.018,3.54.009.434.01.583-.1.561-.556a33.51,33.51,0,0,0-.679-5.449c-.1-.443-.216-.447-.577-.283a16.894,16.894,0,0,1-6.384,1.567c-.35.014-.491.109-.484.486q.033,1.882,0,3.764c-.007.379.125.473.483.468,1.18-.019,2.36-.007,3.54-.007m-9.222,1.154c-1.2,0-2.4.013-3.6-.008-.372-.006-.48.108-.466.479a31.853,31.853,0,0,0,.7,5.615c.081.372.2.344.487.216a17.228,17.228,0,0,1,6.492-1.594c.337-.012.451-.123.446-.465-.017-1.255-.024-2.51,0-3.764.009-.418-.152-.492-.522-.486-1.18.02-2.36.007-3.54.007m9.277,0c-1.2,0-2.4.012-3.6-.007-.36-.006-.489.09-.482.468.021,1.255.017,2.51,0,3.764,0,.322.072.47.428.481a16.971,16.971,0,0,1,6.544,1.611c.281.129.378.108.448-.213a32.072,32.072,0,0,0,.7-5.615c.016-.407-.12-.5-.5-.5-1.18.022-2.36.008-3.54.008M22.29,1.749A17.105,17.105,0,0,1,26.622,9.2a16.018,16.018,0,0,0,3.253-2.487c.269-.253.26-.4,0-.655a17.081,17.081,0,0,0-5.744-3.731,10.492,10.492,0,0,0-1.837-.573M13.564,34.174A17.673,17.673,0,0,1,9.385,26.8a15.359,15.359,0,0,0-3.407,2.66c-.227.229.024.326.136.44a16.216,16.216,0,0,0,3.12,2.459,14.7,14.7,0,0,0,4.33,1.814M26.623,26.79a16.938,16.938,0,0,1-4.228,7.352c.074.03.111.061.136.053.375-.111.753-.214,1.12-.345a16.592,16.592,0,0,0,6.21-3.922c.121-.121.42-.227.168-.481a15.408,15.408,0,0,0-3.406-2.657M13.525,1.768c-.387.125-.777.24-1.159.376A16.566,16.566,0,0,0,6.155,6.064c-.12.119-.428.226-.177.48A15.3,15.3,0,0,0,9.386,9.2a18.609,18.609,0,0,1,4.139-7.436" transform="translate(0 0)" fill="#1c1c1c"/>
    </g>
  </g>
</svg>
