<svg id="Group_5" data-name="Group 5" xmlns="http://www.w3.org/2000/svg" xmlns:xlink="http://www.w3.org/1999/xlink" width="117.89" height="63" viewBox="0 0 117.89 63">
  <defs>
    <clipPath id="clip-path">
      <rect id="Rectangle_8" data-name="Rectangle 8" width="117.89" height="63" fill="#1c1c1c"/>
    </clipPath>
  </defs>
  <g id="Group_4" data-name="Group 4" clip-path="url(#clip-path)">
    <path id="Path_6" data-name="Path 6" d="M5.6,54.706V38.654l3-.431,2.452,3.042,2.973,3.858,2.948-4.684,2.452-3.77,3-.431V52.291l-3.468.5V42.682a28.554,28.554,0,0,1-1.536,2.673l-3.394,5.467-3.444-4.534L9.064,44.126V54.209Z" transform="translate(-3.428 -22.201)" fill="#1c1c1c"/>
    <path id="Path_7" data-name="Path 7" d="M56.055,40.763a9.174,9.174,0,0,1,2.415-6.219,9.677,9.677,0,0,1,6.082-3.276A7.336,7.336,0,0,1,70.633,32.8a6.883,6.883,0,0,1,2.416,5.524,9.2,9.2,0,0,1-2.416,6.243,9.672,9.672,0,0,1-6.081,3.276,7.335,7.335,0,0,1-6.082-1.529,6.91,6.91,0,0,1-2.415-5.548m3.617-.52a4.492,4.492,0,0,0,1.4,3.441,4.026,4.026,0,0,0,3.505,1.007,5.316,5.316,0,0,0,3.468-2.009,5.944,5.944,0,0,0,1.387-3.841,4.491,4.491,0,0,0-1.387-3.417,3.966,3.966,0,0,0-3.468-1.013,5.387,5.387,0,0,0-3.505,2.015,5.88,5.88,0,0,0-1.4,3.817" transform="translate(-34.342 -19.091)" fill="#1c1c1c"/>
    <path id="Path_8" data-name="Path 8" d="M106.961,42.126V26.074L114.467,25a5.5,5.5,0,0,1,3.592.5,3.128,3.128,0,0,1,1.412,2.968,3.625,3.625,0,0,1-.446,1.711,4.018,4.018,0,0,1-1.139,1.365,3.358,3.358,0,0,1,2.192,1.109,3.49,3.49,0,0,1,.854,2.416,5.166,5.166,0,0,1-1.659,4.029,8.163,8.163,0,0,1-4.434,1.9Zm3.468-10.556,3.74-.537q1.685-.242,1.685-1.728,0-1.536-1.734-1.287l-3.691.53Zm0,7.085,4.112-.59q2.725-.392,2.725-2.423a1.568,1.568,0,0,0-.718-1.482,2.84,2.84,0,0,0-1.858-.254l-4.26.612Z" transform="translate(-65.53 -15.26)" fill="#1c1c1c"/>
    <path id="Path_9" data-name="Path 9" d="M150.385,36.943V20.891l3.468-.5V36.445Z" transform="translate(-92.133 -12.494)" fill="#1c1c1c"/>
    <path id="Path_10" data-name="Path 10" d="M168.292,34.371V18.319l3.468-.5V30.9l9.265-1.331v2.973Z" transform="translate(-103.104 -10.918)" fill="#1c1c1c"/>
    <path id="Path_11" data-name="Path 11" d="M207.559,28.73V12.678l3.468-.5V28.232Z" transform="translate(-127.161 -7.462)" fill="#1c1c1c"/>
    <path id="Path_12" data-name="Path 12" d="M227.718,23.359V10.279l-5.45.783V8.09l14.368-2.064V9l-5.45.782v13.08Z" transform="translate(-136.173 -3.692)" fill="#1c1c1c"/>
    <path id="Path_13" data-name="Path 13" d="M267.325,17.411V10.153l-6.044-7.926,3.988-.573L267.1,4.066l1.957,2.84L271.041,3.5,272.8.573,276.788,0l-6,9.606v7.308Z" transform="translate(-160.074 0)" fill="#1c1c1c"/>
    <path id="Path_14" data-name="Path 14" d="M0,100.672a9.173,9.173,0,0,1,2.416-6.218A9.677,9.677,0,0,1,8.5,91.177a7.645,7.645,0,0,1,5.3.973l-2.007,2.641a4.573,4.573,0,0,0-3.047-.5,5.714,5.714,0,0,0-3.7,2.03,5.82,5.82,0,0,0-1.424,3.834,4.492,4.492,0,0,0,1.4,3.441A4.027,4.027,0,0,0,8.522,104.6a6.02,6.02,0,0,0,3.592-1.8l2.106,2.076A9.685,9.685,0,0,1,8.5,107.75a7.334,7.334,0,0,1-6.081-1.529A6.91,6.91,0,0,1,0,100.672" transform="translate(0 -55.796)" fill="#1c1c1c"/>
    <path id="Path_15" data-name="Path 15" d="M39.266,95.026a9.171,9.171,0,0,1,2.416-6.218,9.674,9.674,0,0,1,6.082-3.277,7.337,7.337,0,0,1,6.081,1.529,6.884,6.884,0,0,1,2.415,5.524,9.2,9.2,0,0,1-2.415,6.243,9.674,9.674,0,0,1-6.081,3.276,7.335,7.335,0,0,1-6.082-1.529,6.911,6.911,0,0,1-2.416-5.549m3.617-.52a4.494,4.494,0,0,0,1.4,3.441,4.025,4.025,0,0,0,3.505,1.007,5.316,5.316,0,0,0,3.468-2.009A5.942,5.942,0,0,0,52.643,93.1a4.489,4.489,0,0,0-1.387-3.417,3.966,3.966,0,0,0-3.468-1.013,5.388,5.388,0,0,0-3.505,2.015,5.882,5.882,0,0,0-1.4,3.817" transform="translate(-24.056 -52.335)" fill="#1c1c1c"/>
    <path id="Path_16" data-name="Path 16" d="M90.174,94.41V78.358l3-.431,2.452,3.042L98.6,84.828l2.948-4.685L104,76.373l3-.431V91.995l-3.468.5V82.386a28.654,28.654,0,0,1-1.536,2.673L98.6,90.525l-3.444-4.534L93.642,83.83V93.912Z" transform="translate(-55.245 -46.526)" fill="#1c1c1c"/>
    <path id="Path_17" data-name="Path 17" d="M142.551,87.984V71.932l11.99-1.723v2.973l-8.521,1.224v3.27L153.3,76.63v2.948l-7.283,1.046v6.862Z" transform="translate(-87.334 -43.014)" fill="#1c1c1c"/>
    <path id="Path_18" data-name="Path 18" d="M176.382,75.331a9.171,9.171,0,0,1,2.416-6.218,9.674,9.674,0,0,1,6.082-3.276,7.338,7.338,0,0,1,6.081,1.529,6.885,6.885,0,0,1,2.415,5.524,9.2,9.2,0,0,1-2.415,6.243,9.672,9.672,0,0,1-6.081,3.277,7.335,7.335,0,0,1-6.082-1.529,6.911,6.911,0,0,1-2.416-5.549M180,74.811a4.491,4.491,0,0,0,1.4,3.44,4.025,4.025,0,0,0,3.505,1.007,5.316,5.316,0,0,0,3.468-2.009,5.942,5.942,0,0,0,1.387-3.841,4.489,4.489,0,0,0-1.387-3.417,3.966,3.966,0,0,0-3.468-1.013,5.388,5.388,0,0,0-3.505,2.015,5.882,5.882,0,0,0-1.4,3.818" transform="translate(-108.061 -40.269)" fill="#1c1c1c"/>
    <path id="Path_19" data-name="Path 19" d="M227.288,76.783V60.731l6.862-.985q3.419-.491,5.3.985a5,5,0,0,1,1.883,4.177,6.488,6.488,0,0,1-.793,3.111,7.49,7.49,0,0,1-2.23,2.524l3.344,4.178-4.236.608-2.477-3.36q-.818.168-2.328.384l-1.858.267v3.666Zm3.468-7.137,3.542-.508a3.946,3.946,0,0,0,2.489-1.275,3.562,3.562,0,0,0,.929-2.437,2.709,2.709,0,0,0-.916-2.172,2.989,2.989,0,0,0-2.477-.56l-3.567.512Z" transform="translate(-139.248 -36.528)" fill="#1c1c1c"/>
    <path id="Path_20" data-name="Path 20" d="M272.709,68.748V55.668l-5.45.783V53.478l14.368-2.064v2.973l-5.45.783V68.25Z" transform="translate(-163.737 -31.499)" fill="#1c1c1c"/>
    <path id="Path_21" data-name="Path 21" d="M203.3,119.235a2.079,2.079,0,0,1,.314-1.066,2.786,2.786,0,0,1,.93-.922,2.142,2.142,0,0,1-.485-1.285,1.859,1.859,0,0,1,.47-1.205,2.006,2.006,0,0,1,1.319-.69,1.5,1.5,0,0,1,1.729.954l-.667.48a1.115,1.115,0,0,0-.454-.577.9.9,0,0,0-.607-.14,1.08,1.08,0,0,0-.713.38,1.053,1.053,0,0,0-.258.679q0,.718,1.143,1.777l1.324,1.225a1.846,1.846,0,0,0,.313-1.066l.758-.109a2.961,2.961,0,0,1-.151.927,2.433,2.433,0,0,1-.354.724l.688.629-.516.57-.667-.6a3.316,3.316,0,0,1-1.891.949,2.278,2.278,0,0,1-1.568-.275,1.47,1.47,0,0,1-.657-1.356m.809-.156a.942.942,0,0,0,.435.848,1.473,1.473,0,0,0,1.042.194,2.288,2.288,0,0,0,1.284-.649l-1.881-1.722a1.866,1.866,0,0,0-.657.61,1.342,1.342,0,0,0-.222.719" transform="translate(-124.553 -69.869)" fill="#e92323"/>
    <path id="Path_22" data-name="Path 22" d="M225.852,117.088v-6.552l.718-.1.778,1,1.881,2.338,1.87-2.877.779-1.224.728-.1v6.552l-.809.116v-5.166q-.273.474-.647,1.054l-1.92,2.975-1.942-2.431-.627-.86v5.166Z" transform="translate(-138.368 -67.126)" fill="#e92323"/>
    <path id="Path_23" data-name="Path 23" d="M247.464,108.851a3.88,3.88,0,0,1,2.427-1.334,2.926,2.926,0,0,1,2.426.638,2.8,2.8,0,0,1,.991,2.248,3.748,3.748,0,0,1-.986,2.533,3.872,3.872,0,0,1-2.431,1.335,2.922,2.922,0,0,1-2.431-.637,2.812,2.812,0,0,1-.986-2.249,3.741,3.741,0,0,1,.991-2.534m.6,4.17a2.142,2.142,0,0,0,1.825.511,2.857,2.857,0,0,0,1.825-1.036,2.977,2.977,0,0,0,.743-1.972,2.245,2.245,0,0,0-.743-1.764,2.151,2.151,0,0,0-1.825-.507,2.87,2.87,0,0,0-1.825,1.031,2.975,2.975,0,0,0-.743,1.977,2.25,2.25,0,0,0,.743,1.759" transform="translate(-151.002 -65.845)" fill="#e92323"/>
    <path id="Path_24" data-name="Path 24" d="M267.3,111.986v-6.552l2.679-.385a2.612,2.612,0,0,1,2.073.4,2,2,0,0,1,.738,1.653,2.632,2.632,0,0,1-.395,1.382,2.769,2.769,0,0,1-1.1,1.027l1.547,1.679-1.021.147-1.324-1.478q-.253.066-1.193.2l-1.193.172v1.638Zm.809-2.472,1.951-.28a2.192,2.192,0,0,0,1.36-.7,1.9,1.9,0,0,0,.521-1.313,1.426,1.426,0,0,0-.521-1.164,1.669,1.669,0,0,0-1.35-.306l-1.961.282Z" transform="translate(-163.763 -64.33)" fill="#e92323"/>
    <path id="Path_25" data-name="Path 25" d="M284.659,109.047V102.5l4.964-.713v.718l-4.155.6v1.982l3.882-.558v.708l-3.882.558v2.426l4.3-.617v.718Z" transform="translate(-174.397 -62.357)" fill="#e92323"/>
    <path id="Path_26" data-name="Path 26" d="M74.587,118.615v6.343L.013,135.67v-6.343Z" transform="translate(-0.008 -72.67)" fill="#e92323"/>
  </g>
</svg>
