<svg id="Group_28" data-name="Group 28" xmlns="http://www.w3.org/2000/svg" xmlns:xlink="http://www.w3.org/1999/xlink" width="44.999" height="25.582" viewBox="0 0 44.999 25.582">
  <defs>
    <clipPath id="clip-path">
      <rect id="Rectangle_16" data-name="Rectangle 16" width="44.999" height="25.582" fill="#fff"/>
    </clipPath>
  </defs>
  <g id="Group_11" data-name="Group 11" transform="translate(0 0)" clip-path="url(#clip-path)">
    <path id="Path_37" data-name="Path 37" d="M22.173,0c8.678.209,15.3,4.035,20.714,10.107,2.841,3.184,2.784,2.136.024,5.349A28.01,28.01,0,0,1,27.327,25.04c-7.173,1.527-13.7-.247-19.634-4.4a33.746,33.746,0,0,1-7.3-6.991,1.12,1.12,0,0,1-.038-1.671C5.125,6.052,10.927,1.761,18.563.362,19.848.126,21.171.1,22.173,0m.281,4.49a8.409,8.409,0,0,0-8.331,8.254,8.312,8.312,0,1,0,16.623.032A8.385,8.385,0,0,0,22.454,4.49M15.58,4.119a27.619,27.619,0,0,0-11.913,8.1c-.561.632-.185.946.19,1.368a27.963,27.963,0,0,0,6.6,5.523,18.918,18.918,0,0,0,5.176,2.314c-4.774-4.269-5.91-11.611-.051-17.3m13.58-.042c5.443,4.987,5.431,12.424.024,17.439a27.539,27.539,0,0,0,12.073-8.21c.415-.472.223-.777-.109-1.147A27.77,27.77,0,0,0,29.16,4.077" transform="translate(0 0)" fill="#fff"/>
    <path id="Path_38" data-name="Path 38" d="M68.13,31.891a4.481,4.481,0,1,1-8.923-.522c.084-.586.119-.861.91-.622,2.131.645,3.389-.365,3.179-2.524-.072-.739.2-.724.715-.725a4.42,4.42,0,0,1,4.119,4.394" transform="translate(-41.217 -19.157)" fill="#fff"/>
  </g>
</svg>
