<svg xmlns="http://www.w3.org/2000/svg" width="58.757" height="58.757" viewBox="0 0 58.757 58.757">
  <g id="Group_26" data-name="Group 26" transform="translate(-1701.102 -995.24)">
    <path id="Path_33" data-name="Path 33" d="M71.183,29.378A29.378,29.378,0,1,1,41.8,0,29.381,29.381,0,0,1,71.183,29.378" transform="translate(1688.676 995.24)" fill="#f30e0e"/>
    <path id="Path_34" data-name="Path 34" d="M31.421,2.176a37.626,37.626,0,0,1,4.361.86,15.26,15.26,0,0,1,9.027,6.852,1.8,1.8,0,0,1,.366.927,18.485,18.485,0,0,0-5.842.694c-4.355,1.326-7.74,3.828-9.538,8.139a10.8,10.8,0,0,0-.205,7.818c.194.571.183.743-.5.694a19.167,19.167,0,0,1-4.971-.91A1.2,1.2,0,0,0,23,27.421c-1.509.932-3.035,1.831-4.683,2.824a20.151,20.151,0,0,1,.854-2.852c.2-.682.682-1.4.577-2.02-.105-.594-1.01-.843-1.52-1.3a11.725,11.725,0,0,1-4.267-7.612,3.188,3.188,0,0,0-.144-.483V14.255a25.63,25.63,0,0,1,.816-3.04C16.413,7.07,19.7,4.684,23.8,3.208a28.325,28.325,0,0,1,5.032-1.032ZM25.728,9.8a2.174,2.174,0,0,0-2.119-2.236A2.2,2.2,0,1,0,25.728,9.8m6.508-.033a2.215,2.215,0,0,0,2.186,2.2,2.286,2.286,0,0,0,2.169-2.247,2.289,2.289,0,0,0-2.175-2.164,2.223,2.223,0,0,0-2.18,2.208" transform="translate(1694.999 1005.137)" fill="#ecebeb"/>
    <path id="Path_35" data-name="Path 35" d="M42.912,15.714a10.8,10.8,0,0,1-5.1,7.784c-.544.316-.583.621-.377,1.16.372.982.677,2,1.087,3.235a23.255,23.255,0,0,1-2.608-1.565,4.7,4.7,0,0,0-3.889-.738c-4.955.633-9.36-.6-12.756-4.455C15.72,17.1,16.3,11.153,20.536,7.469A14.654,14.654,0,0,1,40.4,8.618a9.061,9.061,0,0,1,2.364,5.055,3.093,3.093,0,0,0,.15.488ZM27.727,11.736a2.179,2.179,0,0,0-2.142-2.225,2.207,2.207,0,0,0-2.175,2.208,2.167,2.167,0,0,0,2.119,2.158,2.105,2.105,0,0,0,2.2-2.142m8.672-.017a2.2,2.2,0,0,0-2.169-2.208,2.248,2.248,0,0,0-2.18,2.219A2.213,2.213,0,0,0,34.2,13.877a2.125,2.125,0,0,0,2.2-2.158" transform="translate(1709.223 1014.031)" fill="#ecebeb"/>
  </g>
</svg>
