<svg xmlns="http://www.w3.org/2000/svg" width="58.757" height="58.757" viewBox="0 0 58.757 58.757">
  <g id="Group_25" data-name="Group 25" transform="translate(-1632.159 -995.24)">
    <path id="Path_30" data-name="Path 30" d="M58.757,29.378A29.378,29.378,0,1,1,29.378,0,29.381,29.381,0,0,1,58.757,29.378" transform="translate(1632.159 995.24)" fill="#f30e0e"/>
    <path id="Path_31" data-name="Path 31" d="M2.03,38.369c.771-2.83,1.537-5.654,2.325-8.472a1.725,1.725,0,0,0-.133-1.382,18.069,18.069,0,1,1,18.726,9.5,17.672,17.672,0,0,1-10.664-1.67,2.033,2.033,0,0,0-1.548-.133c-2.663.721-5.337,1.415-8.006,2.114a1.056,1.056,0,0,1-.7.044M6.3,34.241c1.759-.455,3.351-.832,4.921-1.287a1.714,1.714,0,0,1,1.459.189,14.557,14.557,0,0,0,9.571,1.9A15.074,15.074,0,1,0,7.423,28.032a1.547,1.547,0,0,1,.205,1.37c-.461,1.559-.866,3.14-1.326,4.838" transform="translate(1641.392 1004.403)" fill="#ecebeb"/>
    <path id="Path_32" data-name="Path 32" d="M17.218,20.863a15.133,15.133,0,0,1-6.98-3,21.462,21.462,0,0,1-5.421-6.109A6.321,6.321,0,0,1,3.78,6.992,5.132,5.132,0,0,1,5.29,4.329a1.94,1.94,0,0,1,3.19.688c.35.849.649,1.726,1.071,2.541A1.54,1.54,0,0,1,9.34,9.373c-1.226,1.659-1.21,1.67.05,3.318a12.5,12.5,0,0,0,5.093,3.895.914.914,0,0,0,1.271-.294c.255-.35.555-.666.821-1,.843-1.065.843-1.071,2.108-.483.91.427,1.814.877,2.73,1.3a.943.943,0,0,1,.594,1.015c-.05,2.142-1.931,3.745-4.788,3.745" transform="translate(1648.774 1012.338)" fill="#ecebeb"/>
  </g>
</svg>
